HIERARCHY
ROOT Root
{
  OFFSET 0.0 0.0 0.0
  CHANNELS 6 Xposition Yposition Zposition Zrotation Yrotation Xrotation
  JOINT Hips
  {
    OFFSET 0.0 100.0 0.0
    CHANNELS 6 Xposition Yposition Zposition Zrotation Yrotation Xrotation
    JOINT Spine1
    {
      OFFSET 5.003913 -0.037094 -0.013727
      CHANNELS 3 Zrotation Yrotation Xrotation
      JOINT Spine2
      {
        OFFSET 7.125363 -1e-06 0.0
        CHANNELS 3 Zrotation Yrotation Xrotation
        JOINT Chest
        {
          OFFSET 7.594027 1e-06 0.0
          CHANNELS 3 Zrotation Yrotation Xrotation
          JOINT Neck1
          {
            OFFSET 26.313086 -0.460272 -0.181672
            CHANNELS 3 Zrotation Yrotation Xrotation
            JOINT Neck2
            {
              OFFSET 8.045911 0.0 0.0
              CHANNELS 3 Zrotation Yrotation Xrotation
              JOINT Head
              {
                OFFSET 6.432774 0.0 0.0
                CHANNELS 3 Zrotation Yrotation Xrotation
                JOINT HeadEnd
                {
                  OFFSET 16.169773 0.06451 0.00362
                  CHANNELS 3 Zrotation Yrotation Xrotation
                }
                JOINT Jaw
                {
                  OFFSET 0.108741 3.12938 0.002639
                  CHANNELS 3 Zrotation Yrotation Xrotation
                }
                JOINT LeftEye
                {
                  OFFSET 4.45173 8.166359 3.206392
                  CHANNELS 3 Zrotation Yrotation Xrotation
                }
                JOINT RightEye
                {
                  OFFSET 4.436895 8.135758 -3.222429
                  CHANNELS 3 Zrotation Yrotation Xrotation
                }
              }
            }
          }
          JOINT LeftShoulder
          {
            OFFSET 23.218927 5.195579 1.621656
            CHANNELS 3 Zrotation Yrotation Xrotation
            JOINT LeftArm
            {
              OFFSET 15.902118 2e-06 -2e-06
              CHANNELS 3 Zrotation Yrotation Xrotation
              JOINT LeftForeArm
              {
                OFFSET 28.739307 0.0 -1e-06
                CHANNELS 3 Zrotation Yrotation Xrotation
                JOINT LeftHand
                {
                  OFFSET 27.093981 -4e-06 0.0
                  CHANNELS 3 Zrotation Yrotation Xrotation
                  JOINT LeftHandThumb1
                  {
                    OFFSET 2.276781 3.380274 0.83384
                    CHANNELS 3 Zrotation Yrotation Xrotation
                    JOINT LeftHandThumb2
                    {
                      OFFSET 4.705309 -1e-06 -1e-06
                      CHANNELS 3 Zrotation Yrotation Xrotation
                      JOINT LeftHandThumb3
                      {
                        OFFSET 2.798515 0.0 3e-06
                        CHANNELS 3 Zrotation Yrotation Xrotation
                        JOINT LeftHandThumbEnd
                        {
                          OFFSET 3.180793 4e-06 -4e-06
                          CHANNELS 3 Zrotation Yrotation Xrotation
                        }
                      }
                    }
                  }
                  JOINT LeftHandIndex1
                  {
                    OFFSET 3.247786 2.352677 0.137192
                    CHANNELS 3 Zrotation Yrotation Xrotation
                    JOINT LeftHandIndex2
                    {
                      OFFSET 6.367095 1e-06 0.0
                      CHANNELS 3 Zrotation Yrotation Xrotation
                      JOINT LeftHandIndex3
                      {
                        OFFSET 3.662364 0.0 0.0
                        CHANNELS 3 Zrotation Yrotation Xrotation
                        JOINT LeftHandIndex4
                        {
                          OFFSET 2.329242 4e-06 -4e-06
                          CHANNELS 3 Zrotation Yrotation Xrotation
                          JOINT LeftHandIndexEnd
                          {
                            OFFSET 2.767823 1e-06 0.0
                            CHANNELS 3 Zrotation Yrotation Xrotation
                          }
                        }
                      }
                    }
                  }
                  JOINT LeftHandMiddle1
                  {
                    OFFSET 3.163612 0.945023 -0.406112
                    CHANNELS 3 Zrotation Yrotation Xrotation
                    JOINT LeftHandMiddle2
                    {
                      OFFSET 6.276789 3e-06 0.0
                      CHANNELS 3 Zrotation Yrotation Xrotation
                      JOINT LeftHandMiddle3
                      {
                        OFFSET 4.35652 -1e-06 4e-06
                        CHANNELS 3 Zrotation Yrotation Xrotation
                        JOINT LeftHandMiddle4
                        {
                          OFFSET 2.996877 0.0 8e-06
                          CHANNELS 3 Zrotation Yrotation Xrotation
                          JOINT LeftHandMiddleEnd
                          {
                            OFFSET 2.323256 3e-06 -4e-06
                            CHANNELS 3 Zrotation Yrotation Xrotation
                          }
                        }
                      }
                    }
                  }
                  JOINT LeftHandRing1
                  {
                    OFFSET 2.882606 -0.309162 0.107445
                    CHANNELS 3 Zrotation Yrotation Xrotation
                    JOINT LeftHandRing2
                    {
                      OFFSET 6.033198 0.0 4e-06
                      CHANNELS 3 Zrotation Yrotation Xrotation
                      JOINT LeftHandRing3
                      {
                        OFFSET 4.350578 3e-06 0.0
                        CHANNELS 3 Zrotation Yrotation Xrotation
                        JOINT LeftHandRing4
                        {
                          OFFSET 2.651321 2e-06 -7e-06
                          CHANNELS 3 Zrotation Yrotation Xrotation
                          JOINT LeftHandRingEnd
                          {
                            OFFSET 1.937663 1e-06 -4e-06
                            CHANNELS 3 Zrotation Yrotation Xrotation
                          }
                        }
                      }
                    }
                  }
                  JOINT LeftHandPinky1
                  {
                    OFFSET 2.865315 -1.525436 0.575687
                    CHANNELS 3 Zrotation Yrotation Xrotation
                    JOINT LeftHandPinky2
                    {
                      OFFSET 5.54936 1e-06 -8e-06
                      CHANNELS 3 Zrotation Yrotation Xrotation
                      JOINT LeftHandPinky3
                      {
                        OFFSET 3.070974 0.0 -4e-06
                        CHANNELS 3 Zrotation Yrotation Xrotation
                        JOINT LeftHandPinky4
                        {
                          OFFSET 1.549672 1e-06 0.0
                          CHANNELS 3 Zrotation Yrotation Xrotation
                          JOINT LeftHandPinkyEnd
                          {
                            OFFSET 1.952123 0.0 0.0
                            CHANNELS 3 Zrotation Yrotation Xrotation
                          }
                        }
                      }
                    }
                  }
                }
              }
            }
          }
          JOINT RightShoulder
          {
            OFFSET 23.161716 5.296122 -1.380114
            CHANNELS 3 Zrotation Yrotation Xrotation
            JOINT RightArm
            {
              OFFSET -16.027195 -2e-06 1.1e-05
              CHANNELS 3 Zrotation Yrotation Xrotation
              JOINT RightForeArm
              {
                OFFSET -28.736639 4e-06 2e-06
                CHANNELS 3 Zrotation Yrotation Xrotation
                JOINT RightHand
                {
                  OFFSET -27.133619 6e-06 0.0
                  CHANNELS 3 Zrotation Yrotation Xrotation
                  JOINT RightHandThumb1
                  {
                    OFFSET -2.274328 -3.351035 -0.83067
                    CHANNELS 3 Zrotation Yrotation Xrotation
                    JOINT RightHandThumb2
                    {
                      OFFSET -4.703594 -3e-06 2e-06
                      CHANNELS 3 Zrotation Yrotation Xrotation
                      JOINT RightHandThumb3
                      {
                        OFFSET -2.794935 -4e-06 -3e-06
                        CHANNELS 3 Zrotation Yrotation Xrotation
                        JOINT RightHandThumbEnd
                        {
                          OFFSET -3.183852 4e-06 1e-06
                          CHANNELS 3 Zrotation Yrotation Xrotation
                        }
                      }
                    }
                  }
                  JOINT RightHandIndex1
                  {
                    OFFSET -3.253496 -2.33755 -0.127667
                    CHANNELS 3 Zrotation Yrotation Xrotation
                    JOINT RightHandIndex2
                    {
                      OFFSET -6.344434 0.0 0.0
                      CHANNELS 3 Zrotation Yrotation Xrotation
                      JOINT RightHandIndex3
                      {
                        OFFSET -3.654871 0.0 -8e-06
                        CHANNELS 3 Zrotation Yrotation Xrotation
                        JOINT RightHandIndex4
                        {
                          OFFSET -2.327586 -1e-06 0.0
                          CHANNELS 3 Zrotation Yrotation Xrotation
                          JOINT RightHandIndexEnd
                          {
                            OFFSET -2.770001 3e-06 8e-06
                            CHANNELS 3 Zrotation Yrotation Xrotation
                          }
                        }
                      }
                    }
                  }
                  JOINT RightHandMiddle1
                  {
                    OFFSET -3.168223 -0.944764 0.411762
                    CHANNELS 3 Zrotation Yrotation Xrotation
                    JOINT RightHandMiddle2
                    {
                      OFFSET -6.266691 -1e-06 -4e-06
                      CHANNELS 3 Zrotation Yrotation Xrotation
                      JOINT RightHandMiddle3
                      {
                        OFFSET -4.348901 0.0 0.0
                        CHANNELS 3 Zrotation Yrotation Xrotation
                        JOINT RightHandMiddle4
                        {
                          OFFSET -3.00024 2e-06 -4e-06
                          CHANNELS 3 Zrotation Yrotation Xrotation
                          JOINT RightHandMiddleEnd
                          {
                            OFFSET -2.321477 -4e-06 -4e-06
                            CHANNELS 3 Zrotation Yrotation Xrotation
                          }
                        }
                      }
                    }
                  }
                  JOINT RightHandRing1
                  {
                    OFFSET -2.885654 0.293261 -0.119232
                    CHANNELS 3 Zrotation Yrotation Xrotation
                    JOINT RightHandRing2
                    {
                      OFFSET -6.032835 -1e-06 -4e-06
                      CHANNELS 3 Zrotation Yrotation Xrotation
                      JOINT RightHandRing3
                      {
                        OFFSET -4.33881 0.0 -4e-06
                        CHANNELS 3 Zrotation Yrotation Xrotation
                        JOINT RightHandRing4
                        {
                          OFFSET -2.654903 -4e-06 -4e-06
                          CHANNELS 3 Zrotation Yrotation Xrotation
                          JOINT RightHandRingEnd
                          {
                            OFFSET -1.935122 0.0 4e-06
                            CHANNELS 3 Zrotation Yrotation Xrotation
                          }
                        }
                      }
                    }
                  }
                  JOINT RightHandPinky1
                  {
                    OFFSET -2.866241 1.503904 -0.60527
                    CHANNELS 3 Zrotation Yrotation Xrotation
                    JOINT RightHandPinky2
                    {
                      OFFSET -5.553177 -2e-06 0.0
                      CHANNELS 3 Zrotation Yrotation Xrotation
                      JOINT RightHandPinky3
                      {
                        OFFSET -3.062664 -1e-06 -4e-06
                        CHANNELS 3 Zrotation Yrotation Xrotation
                        JOINT RightHandPinky4
                        {
                          OFFSET -1.546529 2e-06 4e-06
                          CHANNELS 3 Zrotation Yrotation Xrotation
                          JOINT RightHandPinkyEnd
                          {
                            OFFSET -1.952341 0.0 -4e-06
                            CHANNELS 3 Zrotation Yrotation Xrotation
                          }
                        }
                      }
                    }
                  }
                }
              }
            }
          }
        }
      }
    }
    JOINT LeftLeg
    {
      OFFSET -8.443107 2.567604 10.043214
      CHANNELS 3 Zrotation Yrotation Xrotation
      JOINT LeftShin
      {
        OFFSET 43.229198 1e-06 -1e-06
        CHANNELS 3 Zrotation Yrotation Xrotation
        JOINT LeftFoot
        {
          OFFSET 42.298611 1e-06 1e-06
          CHANNELS 3 Zrotation Yrotation Xrotation
          JOINT LeftToeBase
          {
            OFFSET 14.165858 1e-06 0.0
            CHANNELS 3 Zrotation Yrotation Xrotation
            JOINT LeftToeEnd
            {
              OFFSET 6.7141 -0.234461 0.0
              CHANNELS 3 Zrotation Yrotation Xrotation
            }
          }
        }
      }
    }
    JOINT RightLeg
    {
      OFFSET -8.303923 2.592729 -10.047278
      CHANNELS 3 Zrotation Yrotation Xrotation
      JOINT RightShin
      {
        OFFSET -43.369682 0.0 1e-06
        CHANNELS 3 Zrotation Yrotation Xrotation
        JOINT RightFoot
        {
          OFFSET -42.260784 4e-06 2e-06
          CHANNELS 3 Zrotation Yrotation Xrotation
          JOINT RightToeBase
          {
            OFFSET -14.222245 -2e-06 -1e-06
            CHANNELS 3 Zrotation Yrotation Xrotation
            JOINT RightToeEnd
            {
              OFFSET -6.660062 0.232574 -2e-06
              CHANNELS 3 Zrotation Yrotation Xrotation
            }
          }
        }
      }
    }
  }
}
MOTION
Frames: 4
Frame Time: 0.03333333333333333
0.000000 0.000000 0.000000 0.000000 -0.000000 0.000000 0.010209 99.669052 -0.138192 89.571533 8.909788 93.571922 0.519445 -0.471555 0.607271 -10.637597 -0.088151 1.611356 18.872887 -1.667665 0.204810 23.667877 4.460018 3.515285 -2.711060 -0.757719 -0.736548 -32.427799 1.012489 -1.711996 0.000005 -0.000000 -0.000001 0.068498 0.008490 0.129417 0.033313 -0.049822 0.124407 0.060457 0.058245 0.145687 -105.150711 -74.374298 119.764297 51.618481 -60.430016 0.879017 24.101858 -0.433568 -0.132370 1.477885 -3.065031 13.161499 17.636871 -26.323126 52.411697 -19.467052 -14.395855 29.410809 -0.000046 -8.774978 0.000007 16.162889 -18.228497 6.166191 -0.609771 -1.795672 -3.889364 -4.807106 -11.046938 -2.937887 0.000108 -20.976395 0.000008 -5.019973 -25.034069 -4.031889 0.000007 0.000001 -0.000000 -10.634636 -5.686992 -3.565613 10.573522 -17.923246 -3.113967 0.000068 -13.821452 0.000016 -0.501669 -31.182219 -4.026998 -11.706475 -60.165260 7.833852 -13.982851 -7.150222 -2.875064 13.772971 -8.401662 -3.218311 0.347899 -34.212234 0.771690 -0.962994 -17.733776 2.621141 -0.000001 0.000001 0.000003 -17.346556 -20.095371 -4.201820 21.757872 -1.638495 3.866443 0.000030 -6.338931 0.000007 -1.697511 -22.592205 -6.194090 0.000000 -0.000006 -0.000001 35.070400 -82.924599 155.574326 26.640301 -19.784445 -56.950806 120.198875 -0.292949 1.396901 -17.021078 33.413193 17.110737 22.182631 -20.376219 49.934040 -16.702068 -16.743748 28.476942 -0.000012 -12.690861 -0.000049 16.328096 -16.808437 2.475582 -0.105928 -1.513871 -4.275935 -5.039135 -5.612939 -2.953616 0.000023 -11.020708 -0.000006 -6.111416 -15.895658 -3.840614 -0.000001 -0.000001 0.000001 -10.283536 -5.680344 -4.341916 11.028496 -11.302564 -2.372642 -1.384284 -14.238811 -6.320263 -0.625384 -26.924776 -3.827703 -4.603131 -49.746613 -3.695219 -13.708739 -7.363550 -3.721020 18.141487 -14.052956 -3.242680 0.000045 -18.787590 0.000011 -0.429696 -8.456223 2.555591 -0.000003 -0.000000 -0.000000 -15.923782 -20.094700 -5.473704 30.419724 -7.191006 1.736041 0.000023 -8.163060 0.000012 -1.861894 -22.861959 -6.168079 0.000002 -0.000004 -0.000002 -168.975433 -3.212177 3.156770 5.734282 -0.036153 0.031775 -76.985184 -8.793060 -5.050450 -4.608049 1.628732 2.150378 -0.999998 -0.000000 0.000000 11.816268 -1.559025 -4.003747 5.482630 -0.011163 0.255116 -77.595070 -6.453941 -7.039912 -5.698479 0.810370 1.689592 -1.000002 0.000000 0.000000
0.000000 0.000000 0.000000 0.000000 -0.000000 0.000000 0.013484 99.673134 -0.107021 89.545273 8.864211 93.466278 0.496152 -0.472439 0.578105 -10.694160 -0.125919 1.570256 18.968388 -1.496561 0.110861 23.560606 4.301393 3.393715 -2.696076 -0.739605 -0.498222 -32.298061 0.753164 -1.516572 0.000006 0.000000 -0.000001 0.039067 0.017426 0.129228 0.022927 -0.033834 0.135866 0.038481 0.061208 0.134212 -104.480545 -74.433762 118.875443 51.461464 -60.656158 1.349278 23.805218 -0.352067 -0.132624 1.210105 -3.208032 13.660680 17.636730 -26.322712 52.411167 -19.466743 -14.395624 29.410412 -0.000006 -8.774862 -0.000011 16.177357 -18.205847 6.195642 -0.609776 -1.795659 -3.889330 -4.807096 -11.046836 -2.937860 0.000033 -20.976093 -0.000022 -5.019954 -25.033688 -4.031924 0.000008 -0.000001 -0.000002 -10.634567 -5.686979 -3.565589 10.573328 -17.923004 -3.113920 0.000022 -13.821255 -0.000007 -0.501711 -31.181688 -4.027059 -11.769673 -60.188290 7.955330 -13.982755 -7.150206 -2.875040 13.772784 -8.401523 -3.218249 0.347797 -34.211681 0.771619 -0.962998 -17.733461 2.621034 -0.000002 0.000001 -0.000000 -17.346470 -20.095253 -4.201790 21.757639 -1.638401 3.866449 0.000010 -6.338843 -0.000005 -1.697560 -22.591856 -6.194063 -0.000003 -0.000002 -0.000001 33.854618 -82.133087 157.222656 25.839417 -18.868189 -53.721779 124.036125 -0.202613 1.202251 -8.549500 32.187046 22.340626 22.182222 -20.375954 49.933418 -16.701817 -16.743546 28.476561 0.000001 -12.690627 -0.000013 16.669498 -16.979229 2.170593 -0.105923 -1.513857 -4.275886 -5.039056 -5.612880 -2.953563 0.000005 -11.020551 0.000001 -6.111310 -15.895403 -3.840502 -0.000001 0.000001 0.000001 -10.283401 -5.680296 -4.341848 11.028316 -11.302423 -2.372623 -1.384274 -14.238613 -6.320143 -0.625431 -26.924311 -3.827617 -4.717504 -50.103859 -3.702218 -13.708561 -7.363489 -3.720955 18.141184 -14.052763 -3.242659 0.000005 -18.787327 0.000008 -0.429710 -8.456085 2.555526 -0.000001 -0.000000 0.000001 -15.923582 -20.094513 -5.473602 30.419271 -7.190850 1.735959 0.000006 -8.162950 0.000004 -1.861902 -22.861593 -6.167971 0.000001 -0.000002 -0.000001 -168.936691 -3.202361 3.002186 5.664968 -0.007874 -0.002932 -76.996895 -8.955678 -5.048142 -4.450902 1.647952 2.161204 -1.000001 0.000000 0.000000 11.748748 -1.556618 -3.916565 5.525755 -0.029862 0.253218 -77.744102 -6.577924 -7.084832 -5.748055 0.757590 1.670403 -1.000003 -0.000000 0.000001
0.000000 0.000000 0.000000 0.000000 -0.000000 0.000000 0.030672 99.647095 -0.079449 89.526566 8.785030 93.322800 0.473262 -0.491565 0.513135 -10.739106 -0.130937 1.551561 19.006721 -1.354937 0.117582 23.530487 4.214311 3.274969 -2.666788 -0.684677 -0.481141 -32.258179 0.630899 -1.120746 0.000006 -0.000000 -0.000000 0.006617 0.011999 0.064566 0.028092 -0.038235 0.084594 0.034584 0.056177 0.055822 -104.129913 -74.451256 118.432602 51.405708 -60.701584 1.535629 23.620474 -0.361309 -0.092181 1.073880 -3.321902 13.682459 17.636370 -26.322474 52.410889 -19.466377 -14.395442 29.410160 0.000029 -8.774722 0.000004 16.269577 -18.209993 6.189238 -0.609779 -1.795637 -3.889302 -4.807074 -11.046715 -2.937825 -0.000070 -20.975782 -0.000005 -5.019974 -25.033312 -4.031891 0.000004 0.000000 -0.000003 -10.634444 -5.686948 -3.565561 10.573092 -17.922731 -3.113857 -0.000046 -13.821057 -0.000005 -0.501850 -31.181166 -4.027025 -11.635518 -60.139282 7.962400 -13.982594 -7.150172 -2.875023 13.772554 -8.401366 -3.218206 0.347603 -34.211166 0.771650 -0.963070 -17.733206 2.620967 -0.000002 -0.000000 -0.000000 -17.346300 -20.095085 -4.201743 21.757334 -1.638284 3.866399 -0.000022 -6.338760 0.000003 -1.697638 -22.591536 -6.193977 -0.000002 -0.000005 0.000001 32.429249 -81.588074 159.002945 25.717371 -18.132355 -51.922607 127.068352 -0.276252 1.259009 -1.943317 32.042549 27.083845 22.181612 -20.375530 49.932732 -16.701591 -16.743351 28.476215 0.000022 -12.690405 0.000048 16.881336 -17.179865 2.021173 -0.105913 -1.513842 -4.275836 -5.038972 -5.612821 -2.953510 -0.000024 -11.020386 -0.000017 -6.111216 -15.895148 -3.840411 -0.000002 -0.000003 -0.000000 -10.283234 -5.680253 -4.341769 11.028110 -11.302242 -2.372640 -1.384264 -14.238403 -6.320045 -0.625444 -26.923786 -3.827614 -4.799035 -50.078499 -3.761063 -13.708347 -7.363430 -3.720869 18.140856 -14.052519 -3.242684 -0.000038 -18.787020 -0.000044 -0.429725 -8.455925 2.555434 -0.000001 -0.000001 0.000001 -15.923351 -20.094313 -5.473486 30.418795 -7.190621 1.735828 -0.000022 -8.162808 -0.000021 -1.861907 -22.861156 -6.167918 -0.000004 -0.000003 -0.000001 -168.958145 -3.159980 2.756742 5.613698 -0.006942 -0.015989 -76.976349 -9.092359 -4.953665 -4.422424 1.640530 2.158732 -0.999995 -0.000001 -0.000000 11.669412 -1.572857 -3.868014 5.495412 -0.035816 0.215508 -77.852257 -6.506734 -7.069894 -5.775838 0.713521 1.662651 -0.999998 0.000000 -0.000000
0.000000 0.000000 0.000000 0.000000 -0.000000 0.000000 0.055714 99.640236 -0.055423 89.506531 8.767222 93.149590 0.463405 -0.494237 0.487224 -10.742974 -0.106505 1.567705 19.013510 -1.292519 0.106428 23.565191 4.108589 3.219772 -2.634159 -0.647354 -0.373256 -32.307617 0.625819 -0.893771 0.000006 0.000000 0.000000 0.001285 0.005302 0.024742 0.047408 -0.040619 0.051093 0.056258 0.045818 0.009603 -104.340385 -74.403183 118.698769 51.413315 -60.579346 1.308585 23.437185 -0.438990 -0.106867 1.141808 -3.308994 13.810469 17.636726 -26.322779 52.411156 -19.466858 -14.395700 29.410488 -0.000040 -8.774885 0.000002 16.249929 -18.245258 6.197043 -0.609767 -1.795659 -3.889335 -4.807064 -11.046837 -2.937859 0.000111 -20.976156 -0.000017 -5.019893 -25.033749 -4.031869 0.000005 -0.000001 -0.000003 -10.634554 -5.686955 -3.565584 10.573407 -17.923065 -3.113944 0.000066 -13.821299 0.000002 -0.501646 -31.181812 -4.026993 -11.490917 -59.996677 7.836868 -13.982740 -7.150172 -2.875046 13.772834 -8.401579 -3.218277 0.347918 -34.211800 0.771636 -0.962964 -17.733543 2.621092 0.000001 0.000003 0.000004 -17.346415 -20.095211 -4.201791 21.757662 -1.638468 3.866413 0.000031 -6.338859 -0.000003 -1.697477 -22.591928 -6.194043 -0.000002 -0.000002 -0.000003 31.837172 -81.511269 159.787720 25.757095 -18.111237 -51.891514 127.623329 -0.108569 1.378454 -0.870555 32.201591 28.280912 22.182308 -20.375959 49.933281 -16.701851 -16.743572 28.476498 -0.000046 -12.690652 -0.000026 16.932703 -17.311092 2.116958 -0.105920 -1.513850 -4.275879 -5.039046 -5.612847 -2.953556 0.000048 -11.020530 0.000006 -6.111264 -15.895322 -3.840489 -0.000000 -0.000004 0.000000 -10.283397 -5.680254 -4.341846 11.028364 -11.302427 -2.372614 -1.384230 -14.238566 -6.320117 -0.625348 -26.924259 -3.827536 -4.764640 -50.019485 -3.762081 -13.708557 -7.363432 -3.720953 18.141249 -14.052783 -3.242647 0.000075 -18.787285 0.000034 -0.429682 -8.456078 2.555550 0.000001 -0.000003 -0.000001 -15.923548 -20.094406 -5.473602 30.419321 -7.190943 1.735960 0.000030 -8.162940 0.000018 -1.861836 -22.861517 -6.167898 -0.000000 -0.000001 0.000001 -168.921875 -3.123456 2.564433 5.571137 -0.025772 -0.005280 -77.009087 -9.089555 -4.933654 -4.409813 1.602733 2.150028 -0.999996 -0.000000 0.000000 11.662353 -1.594825 -3.745099 5.459602 -0.041379 0.204642 -77.852966 -6.450324 -7.075540 -5.709225 0.711591 1.673101 -0.999997 0.000001 0.000001
